<?xml version="1.0" encoding="UTF-8"?>
<svg id="_Слой_1" data-name="Слой_1" xmlns="http://www.w3.org/2000/svg" version="1.1" viewBox="0 0 1920 1400">
  <!-- Generator: Adobe Illustrator 29.8.3, SVG Export Plug-In . SVG Version: 2.1.1 Build 3)  -->
  <defs>
    <style>
      .st0 {
        fill: currentColor;
      }
    </style>
  </defs>
  <path class="st0" d="M1423.63,641c-17.29-41.07-46.83-81.46-88.66-121.12l-400.98-380.14-.66.63-.66-.63-400.98,380.14c-41.83,39.66-71.37,80.05-88.66,121.12-17.26,41.1-24.24,81.91-20.89,122.41,3.33,40.52,14.68,79.16,34.08,115.94,19.42,36.77,45.17,70.39,77.3,100.86,43.64,41.37,92.6,71.39,146.85,90.07,54.25,18.68,110.47,21.73,168.68,9.05,28.46-6.18,56.56-17.12,84.3-32.79,27.74,15.67,55.84,26.61,84.3,32.79,58.2,12.67,114.43,9.62,168.68-9.05,54.25-18.68,103.2-48.7,146.85-90.07,32.13-30.46,57.88-64.09,77.3-100.86,19.4-36.78,30.74-75.43,34.08-115.94,3.35-40.5-3.64-81.3-20.89-122.41ZM603.5,589.71l329.82-312.68,329.82,312.68c4.1,3.89,8.05,7.77,11.85,11.65l-329.6,312.47c-4.03,3.82-8.05,7.49-12.07,11.04-4.02-3.55-8.04-7.22-12.07-11.04l-329.6-312.47c3.8-3.88,7.75-7.77,11.85-11.65ZM702.18,984.94c-37.91-12.91-73.21-34.91-105.95-65.95-32.12-30.45-54.87-63.48-68.19-99.14-13.34-35.61-14.54-72.97-3.64-112.05,2.23-8,5.13-16.02,8.66-24.05l313.13,296.86c-8.47,3.35-16.93,6.09-25.37,8.21-41.21,10.36-80.77,9.07-118.65-3.88ZM1338.6,819.85c-13.32,35.66-36.07,68.69-68.19,99.14-32.74,31.04-68.04,53.03-105.95,65.95-37.88,12.94-77.44,14.23-118.65,3.88-8.44-2.12-16.9-4.86-25.37-8.21l313.13-296.86c3.53,8.03,6.43,16.05,8.66,24.05,10.91,39.09,9.7,76.44-3.64,112.05Z"/>
</svg>