<?xml version="1.0"?>
<svg id="_Слой_1" data-name="Слой_1" xmlns="http://www.w3.org/2000/svg" version="1.1" viewBox="0 0 1920 1400">
  
  <defs>
    
  </defs>
  <path class="st0" d="M569.92,1040.6h79.9v-441.47c0-45.94,8.32-83.24,24.97-111.86,16.64-28.64,39.11-49.61,67.42-62.93,28.29-13.32,60.43-19.98,96.38-19.98s66.92,6.65,94.89,19.98c27.96,13.31,50.27,34.29,66.92,62.93,16.64,28.62,24.97,65.92,24.97,111.86v441.47h79.9v-440.47c0-45.95-7.16-85.57-21.48-118.86-14.32-33.3-34.13-60.77-59.43-82.4-25.32-21.64-53.93-37.8-85.9-48.44-31.96-10.64-65.59-15.98-100.88-15.98-47.94,0-92.23,9.49-132.84,28.47-40.62,18.98-73.26,48.1-97.89,87.39-24.64,39.28-36.95,89.22-36.95,149.82v440.47Z"></path>
  <path class="st0" d="M796.64,1040.6h79.9v-441.47c0-45.94,8.32-83.24,24.97-111.86,16.64-28.64,39.11-49.61,67.42-62.93,28.29-13.32,60.43-19.98,96.38-19.98s66.92,6.65,94.89,19.98c27.96,13.31,50.27,34.29,66.92,62.93,16.64,28.62,24.97,65.92,24.97,111.86v441.47h79.9v-440.47c0-45.95-7.16-85.57-21.48-118.86-14.32-33.3-34.13-60.77-59.43-82.4-25.32-21.64-53.93-37.8-85.9-48.44-31.96-10.64-65.59-15.98-100.88-15.98-47.94,0-92.23,9.49-132.84,28.47-40.62,18.98-73.26,48.1-97.89,87.39-24.64,39.28-36.95,89.22-36.95,149.82v440.47Z"></path>
</svg>