<?xml version="1.0"?>
<svg id="_Слой_1" data-name="Слой_1" xmlns="http://www.w3.org/2000/svg" version="1.1" viewBox="0 0 1920 1400">
  
  <defs>
    
  </defs>
  <path class="st0" d="M1262,498.51c-13.34-31.02-31.79-56.6-55.35-76.75-23.58-20.16-50.23-35.2-80-45.12-29.77-9.91-61.09-14.88-93.96-14.88-44.65,0-85.9,8.84-123.72,26.51-37.84,17.67-68.23,44.8-91.17,81.4-22.95,36.59-34.42,83.1-34.42,139.54v360.5c-18.01-3-34.93-7.89-50.45-15.2-26.37-12.4-47.3-31.94-62.79-58.61-15.51-26.66-23.26-61.4-23.26-104.18v-411.17h-74.42v410.24c0,56.44,11.47,102.95,34.42,139.54,22.94,36.6,53.33,63.72,91.17,81.4,37.82,17.67,79.07,26.51,123.72,26.51,32.86,0,64.19-4.97,93.96-14.88,29.77-9.92,56.42-24.96,80-45.12,23.56-20.14,42.01-45.73,55.35-76.75,13.33-31,20-67.91,20-110.7v-360.68c18.16,2.97,35.23,7.91,50.91,15.38,26.04,12.4,46.82,31.94,62.33,58.61,15.49,26.66,23.26,61.4,23.26,104.18v411.17h74.42v-410.24c0-42.79-6.67-79.69-20-110.7ZM973.41,895.9c-15.51,26.67-36.28,46.21-62.33,58.61-16.36,7.79-34.22,12.85-53.27,15.74v-361.97c0-42.79,7.74-77.53,23.26-104.18,15.49-26.67,36.42-46.21,62.79-58.61,16.2-7.63,33.91-12.62,52.81-15.56v361.79c0,42.79-7.76,77.53-23.26,104.18Z"></path>
</svg>