<?xml version="1.0"?>
<svg id="_Слой_1" data-name="Слой_1" xmlns="http://www.w3.org/2000/svg" version="1.1" viewBox="0 0 1920 1400">
  
  <defs>
    
  </defs>
  <path class="st0" d="M1236.99,578.31c-10.98-25.88-27.58-49.96-49.82-72.19-22.23-22.23-46.3-38.83-72.19-49.82-25.89-10.97-52.14-16.53-78.74-16.68-20.74-.1-41.04,3.05-60.93,9.44-19.88-6.39-40.19-9.54-60.93-9.44-26.6.15-52.85,5.71-78.74,16.68-25.89,10.98-49.96,27.59-72.19,49.82-22.24,22.24-38.84,46.31-49.82,72.19-10.98,25.9-16.54,52.15-16.68,78.74-.14,26.6,5.07,52.49,15.62,77.68,10.55,25.2,26.11,48.06,46.65,68.6s43.84,36.53,69.03,47.07c25.19,10.56,51.16,15.84,77.89,15.83,23.37,0,46.43-4.19,69.16-12.58,22.73,8.39,45.78,12.59,69.16,12.58,26.74,0,52.7-5.27,77.89-15.83,25.19-10.55,48.19-26.24,69.03-47.07,20.54-20.54,36.1-43.4,46.65-68.6,10.55-25.19,15.76-51.08,15.62-77.68-.14-26.59-5.7-52.84-16.68-78.74ZM975.31,801.59c-16.39-8.99-32.18-21.07-47.36-36.25-25.05-25.05-41.73-51.57-50.03-79.58-8.3-28-8.8-55.37-1.48-82.11,7.32-26.74,21.67-50.8,43.06-72.19,16.85-16.85,35.46-29.25,55.81-37.22,20.35,7.97,38.95,20.37,55.81,37.22,21.39,21.39,35.75,45.46,43.06,72.19,7.32,26.74,6.83,54.11-1.48,82.11-8.3,28.01-24.98,54.53-50.03,79.58-15.18,15.18-30.97,27.25-47.36,36.25ZM861.19,816.64c-26.88-7.17-51.01-21.46-72.41-42.85s-35.19-45.03-42.22-71.77c-7.04-26.74-6.4-54.1,1.9-82.11,8.31-28,24.84-54.39,49.61-79.16s51.58-41.72,79.58-50.03c10.64-3.15,21.18-5.18,31.62-6.1-6.65,5.31-13.09,11.07-19.32,17.29-20.83,20.83-36.52,43.84-47.07,69.03-10.55,25.2-15.83,51.16-15.83,77.89,0,26.74,5.49,53.06,16.47,78.95,10.98,25.9,27.59,49.96,49.82,72.19,7.52,7.52,15.25,14.37,23.18,20.6-18.7,2.23-37.14.93-55.32-3.93ZM1204.06,702.01c-7.03,26.74-21.11,50.66-42.22,71.77-21.39,21.39-45.52,35.68-72.41,42.85-18.18,4.86-36.62,6.16-55.32,3.93,7.93-6.23,15.66-13.09,23.18-20.6,22.23-22.23,38.84-46.29,49.82-72.19,10.98-25.89,16.47-52.2,16.47-78.95,0-26.73-5.28-52.69-15.83-77.89-10.55-25.18-26.24-48.19-47.07-69.03-6.22-6.22-12.67-11.98-19.32-17.29,10.44.92,20.97,2.95,31.62,6.1,28,8.31,54.53,24.98,79.58,50.03,24.77,24.77,41.3,51.16,49.61,79.16,8.3,28.01,8.94,55.38,1.9,82.11Z"></path>
</svg>