<svg width="1206" height="218" viewBox="0 0 1206 218" fill="none" xmlns="http://www.w3.org/2000/svg">
<path d="M77.0103 147.741V146.851L119.05 134.151L228.95 171.921L396.25 121.951C434.72 111.351 432.56 91.4608 432.56 91.4608L459.42 83.4108C459.42 83.4108 462.64 132.711 411.45 143.701L228.95 196.581L77.0103 147.741Z" fill="#ff9e10"></path>
<path d="M382.45 106.111V107.001L340.41 119.701L230.51 81.9308L63.2102 131.901C24.7402 142.501 26.9002 162.391 26.9002 162.391L0.0402095 170.441C0.0402095 170.441 -3.17979 121.141 48.0102 110.151L230.51 57.2708L382.45 106.111Z" fill="#ff9e10"></path>
<path d="M1187.38 52.0058H1205.81L1138.21 217.479H1121.19L1141.28 168.546L1093.53 52.0058H1112.91L1150.74 147.507L1187.38 52.0058Z" fill="#ff9e10"></path>
<path d="M1031.7 52.0058V18.9112H1049.43V52.0058H1080.87V68.5531H1049.43V132.142C1049.43 139.391 1050.92 144.671 1053.92 147.98C1057.07 151.29 1061.01 153.26 1065.74 153.89C1070.62 154.52 1075.67 154.52 1080.87 153.89V169.255C1074.72 170.674 1068.65 171.068 1062.67 170.437C1056.83 169.807 1051.55 168.073 1046.83 165.237C1042.26 162.242 1038.55 158.066 1035.72 152.708C1033.04 147.35 1031.7 140.494 1031.7 132.142V68.5531H1013.97V52.0058H1031.7Z" fill="#ff9e10"></path>
<path d="M966.735 52.0058H984.228V170.201H966.735V52.0058ZM975.718 28.3668C972.093 28.3668 969.099 27.1848 966.735 24.8209C964.371 22.457 963.189 19.5416 963.189 16.0745C963.189 12.4499 964.371 9.45559 966.735 7.09169C969.099 4.72779 972.093 3.54584 975.718 3.54584C979.027 3.54584 981.864 4.72779 984.228 7.09169C986.75 9.45559 988.01 12.4499 988.01 16.0745C988.01 19.5416 986.75 22.457 984.228 24.8209C981.864 27.1848 979.027 28.3668 975.718 28.3668Z" fill="#ff9e10"></path>
<path d="M909.401 0H927.131V170.201H909.401V0Z" fill="#ff9e10"></path>
<path d="M852.003 52.0058H869.496V170.201H852.003V52.0058ZM860.986 28.3668C857.361 28.3668 854.367 27.1848 852.003 24.8209C849.639 22.457 848.457 19.5416 848.457 16.0745C848.457 12.4499 849.639 9.45559 852.003 7.09169C854.367 4.72779 857.361 3.54584 860.986 3.54584C864.295 3.54584 867.132 4.72779 869.496 7.09169C872.017 9.45559 873.278 12.4499 873.278 16.0745C873.278 19.5416 872.017 22.457 869.496 24.8209C867.132 27.1848 864.295 28.3668 860.986 28.3668Z" fill="#ff9e10"></path>
<path d="M720.938 75.8812C724.405 68.6319 729.842 62.5646 737.249 57.6792C744.655 52.7938 754.032 50.3511 765.379 50.3511C776.253 50.3511 785.708 52.8726 793.746 57.9156C801.941 62.9585 808.244 70.0502 812.657 79.1907C817.227 88.1735 819.512 98.811 819.512 111.103C819.512 123.396 817.227 134.112 812.657 143.252C808.087 152.393 801.704 159.484 793.509 164.527C785.472 169.413 776.095 171.856 765.379 171.856C754.663 171.856 745.759 169.57 738.667 165C731.575 160.43 726.217 154.835 722.592 148.217L721.41 170.201H705.099V0H722.829V76.1176L720.938 75.8812ZM800.365 111.103C800.365 97.5503 796.819 86.8339 789.727 78.9543C782.793 70.917 773.416 66.8984 761.597 66.8984C754.19 66.8984 747.492 68.7107 741.504 72.3353C735.673 75.8024 731.102 80.8454 727.793 87.4643C724.483 93.9256 722.829 101.805 722.829 111.103C722.829 120.401 724.483 128.36 727.793 134.979C731.102 141.598 735.673 146.641 741.504 150.108C747.492 153.575 754.19 155.308 761.597 155.308C773.416 155.308 782.793 151.368 789.727 143.489C796.819 135.451 800.365 124.656 800.365 111.103Z" fill="#ff9e10"></path>
<path d="M647.701 52.0058H665.194V170.201H647.701V52.0058ZM656.684 28.3668C653.059 28.3668 650.065 27.1848 647.701 24.8209C645.337 22.457 644.155 19.5416 644.155 16.0745C644.155 12.4499 645.337 9.45559 647.701 7.09169C650.065 4.72779 653.059 3.54584 656.684 3.54584C659.993 3.54584 662.83 4.72779 665.194 7.09169C667.715 9.45559 668.976 12.4499 668.976 16.0745C668.976 19.5416 667.715 22.457 665.194 24.8209C662.83 27.1848 659.993 28.3668 656.684 28.3668Z" fill="#ff9e10"></path>
<path d="M541.654 134.033C542.6 138.761 544.333 142.701 546.855 145.853C549.376 148.847 552.607 151.132 556.547 152.708C560.644 154.284 565.372 155.072 570.73 155.072C579.083 155.072 585.386 153.496 589.641 150.344C594.054 147.035 596.26 142.937 596.26 138.052C596.26 133.954 594.921 130.645 592.242 128.123C589.72 125.602 586.332 123.553 582.077 121.977C577.822 120.244 573.094 118.747 567.894 117.486C563.796 116.54 559.384 115.437 554.656 114.176C549.928 112.758 545.437 110.867 541.182 108.503C536.926 106.139 533.459 103.066 530.78 99.2838C528.101 95.5016 526.762 90.5374 526.762 84.3912C526.762 77.6147 528.574 71.705 532.199 66.662C535.981 61.4614 541.103 57.4428 547.564 54.6061C554.183 51.7694 561.747 50.3511 570.257 50.3511C580.028 50.3511 588.696 52.4786 596.26 56.7336C603.982 60.9886 609.341 67.6076 612.335 76.5904L595.788 82.2637C594.684 78.1663 592.636 75.0144 589.641 72.8081C586.805 70.6018 583.574 69.1047 579.949 68.3167C576.482 67.5288 573.015 67.1348 569.548 67.1348C562.457 67.1348 556.704 68.5531 552.292 71.3898C548.037 74.0689 545.909 78.1663 545.909 83.6821C545.909 86.6763 546.618 89.1978 548.037 91.2465C549.455 93.1377 551.425 94.7136 553.947 95.9744C556.468 97.2351 559.462 98.3382 562.929 99.2838C566.396 100.072 570.179 101.017 574.276 102.12C578.846 103.224 583.495 104.642 588.223 106.376C592.951 107.951 597.364 110.079 601.461 112.758C605.558 115.28 608.868 118.589 611.389 122.686C614.068 126.626 615.408 131.59 615.408 137.579C615.408 144.513 613.517 150.58 609.735 155.781C605.952 160.824 600.673 164.764 593.896 167.601C587.278 170.437 579.555 171.856 570.73 171.856C558.596 171.856 548.51 169.176 540.472 163.818C532.593 158.303 527.313 150.265 524.634 139.707L541.654 134.033Z" fill="#ff9e10"></path>
</svg>